<?xml version="1.0" encoding="utf-8" ?>
<svg xmlns="http://www.w3.org/2000/svg" width="625" height="480" viewBox="0 0 625 480">
  <path fill="currentColor" d="M316.464 50.4999C336.969 50.4632 357.796 50.3797 378.205 50.662C405.512 51.0396 433.776 62.9126 452.52 82.9174C466 97.1023 474.602 115.748 478.038 134.92C478.594 138.026 480.695 148.874 478.413 150.955C477.118 151.47 475.327 151.593 473.943 151.573C463.201 151.419 452.407 151.807 441.682 151.364C441.171 151.343 439.412 150.993 439.224 150.507C438.09 147.569 437.901 144.351 437.297 141.281C433.089 115.191 409.114 93.4205 383.237 89.7904C376.079 88.7862 364.923 89.0529 357.384 89.184L335.709 89.3558C328.526 89.4175 321.342 89.4165 314.159 89.3529C305.208 89.187 290.467 88.9059 281.703 89.7798C262.805 91.6645 239.889 100.46 224.959 112.252C212.568 122.037 200.887 135.257 193.619 149.369C188.485 159.338 185.396 168.585 181.717 179.034L169.903 213.229L134.928 313.848L113.894 374L108.539 389.09C107.651 391.556 105.511 397.155 105.188 399.505C108.527 401.455 124.194 394.722 127.855 392.66C144.622 383.294 157.768 368.58 165.193 350.868C169.225 341.439 172.662 329.681 176.065 319.849L190.294 278.448C194.565 265.67 198.844 251.687 204.529 239.569C222.484 201.555 259.552 176.558 300.294 168.812C317.521 165.537 333.723 166.085 351.098 166.105L398.031 166.103L563.696 166.115C569.485 165.952 584.258 165.671 589.269 166.413C589.066 169.158 588.768 170.483 587.795 173.062C575.998 204.298 551.476 230.415 521.286 244.309C509.718 249.584 497.441 253.141 484.844 254.867C483.028 255.118 479.405 255.763 477.79 255.168C476.904 251.512 482.643 239.726 483.366 235.947C485.957 222.385 490.998 225.501 502.187 221.481C516.385 216.38 531.515 206.191 541.157 194.291C534.112 194.806 525.176 194.604 518.089 194.595L482.781 194.577L372.894 194.617L344.317 194.595C330.817 194.574 318.509 194.416 305.178 197.031C274.517 203.045 246.235 220.361 231.933 248.842C226.354 259.952 222.283 273.138 218.352 285.036C213.123 300.811 207.754 316.54 202.244 332.219C198.485 343.093 195.407 354.012 190.542 364.602C174.698 399.09 141.168 426.496 102.592 429.477C93.8891 430.15 83.7156 429.303 74.8822 429.628C71.3593 429.757 58.4047 430.004 55.419 429.235C53.9501 426.859 68.8593 387.072 70.446 382.478L115.912 251.803L136.599 192.104C142.219 175.442 147.934 157.52 154.872 141.434C175.48 93.8492 222.255 57.5361 274.069 51.5993C287.572 50.0521 302.825 50.6079 316.464 50.4999Z"/>
  <path fill="currentColor" d="M422.958 208.256C429.968 207.907 438.527 208.262 445.741 208.183C450.019 208.135 461.053 207.947 464.584 208.531C467.436 210.799 455.696 227.112 453.904 229.715C434.624 257.708 406.753 279.368 374.48 290.265C363.813 293.866 352.912 296.024 341.811 297.841C343.041 299.346 344.567 300.981 345.917 302.397C358.41 315.491 371.141 329.271 384.575 341.404C414.311 368.142 447.983 390.147 484.409 406.648C500.639 414.136 518.498 419.776 535.652 424.741C537.916 425.396 550.97 428.486 551.566 429.321L551.185 429.703C549.195 430.153 544.874 429.911 542.59 429.923C535.986 429.955 529.387 429.853 522.788 429.586L448.333 429.644C435.292 429.63 422.138 429.721 409.095 429.585C407.559 429.416 404.464 429.431 403.21 428.47C396.57 423.383 390.588 416.807 384.651 410.927C372.916 399.36 361.255 387.719 349.668 376.005L303.056 329.357L287.579 313.933C281.865 308.236 274.022 301.41 271.786 293.456C269.859 286.599 270.878 278.063 274.502 271.842C284.879 254.033 309.662 260.371 326.645 259.683C336.298 259.622 345.752 258.439 355.083 255.879C378.089 249.567 399.615 235.599 414.752 217.166C416.624 214.887 420.297 208.968 422.958 208.256Z"/>
</svg>
